<svg version="1.1" xmlns="http://www.w3.org/2000/svg" xmlns:xlink="http://www.w3.org/1999/xlink">
    <symbol id="has_spa" width="18px" height="18px" viewBox="0 0 18 18" version="1.1">
        <g stroke="none" stroke-width="1" fill="none" fill-rule="evenodd">
            <g transform="translate(-4.000000, -4.000000)" fill="currentColor">
                <g>
                    <g transform="translate(4.000000, 4.000000)">
                        <path d="M16.0245369,9.92404918 C17.1567295,10.0970041 17.9688689,10.445791 17.9688689,10.445791 C17.9688689,10.445791 16.8381148,13.3840328 14.3573238,14.4289918 C13.6238975,14.7376475 12.8546189,14.8462746 12.1349508,14.8462746 C11.7911066,14.8462746 11.4646352,14.8171721 11.1527705,14.7775574 C12.5445615,14.1363074 14.3838074,12.9888443 15.4845369,11.0888852 C15.7045205,10.7091885 15.8795041,10.3180943 16.0245369,9.92404918 Z M2.48433197,11.0882951 C3.58513525,12.9885861 5.42430738,14.1363443 6.81639344,14.7775943 C6.50456557,14.817209 6.17779918,14.8463115 5.83395492,14.8463115 C5.11395492,14.8463115 4.34467623,14.7376475 3.61154508,14.4290287 C1.13042213,13.3840697 1.9673152e-13,10.4458279 1.9673152e-13,10.4458279 C1.9673152e-13,10.4458279 0.812139344,10.0970041 1.94466393,9.92408607 C2.08943852,10.3177992 2.26471721,10.7086352 2.48433197,11.0882951 Z M11.3674426,13.2698361 C12.0797705,12.1344344 12.7741721,10.5811967 12.7741721,8.83707787 C12.7741721,7.51872541 12.3774713,6.30933197 11.8762746,5.30690164 C13.4301393,4.26692213 14.9913074,3.87903689 14.9913074,3.87903689 C14.9913074,3.87903689 16.0609426,7.59832377 14.403209,10.4623156 C13.6435943,11.7735861 12.4450451,12.6744344 11.3674426,13.2698361 Z M6.6017582,13.2698361 C5.52419262,12.6744344 4.32560656,11.7735861 3.56602869,10.4623156 C1.9082582,7.59836066 2.97785656,3.87903689 2.97785656,3.87903689 C2.97785656,3.87903689 4.53902459,4.26692213 6.09288934,5.30690164 C5.59169262,6.30933197 5.1949918,7.51872541 5.1949918,8.83707787 C5.1949918,10.5811967 5.88939344,12.1344344 6.6017582,13.2698361 Z M8.98472951,3.38079098 C8.98472951,3.38079098 11.5245738,5.82344262 11.5245738,8.83711475 C11.5245738,11.8502705 8.98472951,14.2931434 8.98472951,14.2931434 C8.98472951,14.2931434 6.44466393,11.8502336 6.44466393,8.83711475 C6.44466393,5.82344262 8.98472951,3.38079098 8.98472951,3.38079098 Z"></path>
                    </g>
                </g>
            </g>
        </g>
    </symbol>

    <symbol id="has_internet" width="18px" height="18px" viewBox="0 0 18 18" version="1.1">
        <g stroke="none" stroke-width="1" fill="none" fill-rule="evenodd">
            <g transform="translate(-4.000000, -4.000000)" fill="currentColor">
                <g>
                    <g transform="translate(4.000000, 4.000000)">
                        <path d="M3.762,10.188 C4.7220048,9.23999526 5.84399358,8.59800168 7.128,8.262 C8.3880063,7.93799838 9.64199376,7.93799838 10.89,8.262 C12.1740064,8.59800168 13.2899953,9.23999526 14.238,10.188 L12.762,11.7 C12.0779966,11.0159966 11.2740046,10.5540012 10.35,10.314 C9.4499955,10.0859989 8.5500045,10.0859989 7.65,10.314 C6.72599538,10.5540012 5.92200342,11.0159966 5.238,11.7 L3.762,10.188 Z M6.75,13.212 C7.14600198,12.815998 7.61999724,12.5460007 8.172,12.402 C8.72400276,12.2579993 9.27599724,12.2579993 9.828,12.402 C10.3800028,12.5460007 10.853998,12.815998 11.25,13.212 L9,15.462 L6.75,13.212 Z M0.738,7.2 C1.86600564,6.08399442 3.15599274,5.23200294 4.608,4.644 C6.02400708,4.07999718 7.49399238,3.798 9.018,3.798 C10.5420076,3.798 12.005993,4.07999718 13.41,4.644 C14.8620073,5.23200294 16.1459944,6.08399442 17.262,7.2 L15.75,8.712 C14.8379954,7.79999544 13.7880059,7.1040024 12.6,6.624 C11.4479942,6.15599766 10.2480062,5.922 9,5.922 C7.75199376,5.922 6.55200576,6.15599766 5.4,6.624 C4.21199406,7.1040024 3.16200456,7.79999544 2.25,8.712 L0.738,7.2 Z"></path>
                    </g>
                </g>
            </g>
        </g>
    </symbol>

    <symbol id="has_pool" width="18px" height="18px" viewBox="0 0 18 18" version="1.1">
        <g stroke="none" stroke-width="1" fill="none" fill-rule="evenodd">
            <g transform="translate(-4.000000, -4.000000)" fill="currentColor">
                <g>
                    <g transform="translate(4.000000, 4.000000)">
                        <path d="M15.6661875,11.683125 C16.165125,11.1121875 16.864875,10.73925 17.656875,10.639125 L17.656875,12.5060625 C17.364375,12.598875 17.1635625,12.7755 17.0578125,12.8964375 C16.5245625,13.509 15.7505625,13.8605625 14.9360625,13.8616875 C14.11875,13.8616875 13.3453125,13.5095625 12.8109375,12.8964375 C12.6624375,12.727125 12.335625,12.441375 11.81475,12.441375 C11.4316875,12.441375 11.079,12.6 10.8230625,12.8885625 C10.2898125,13.491 9.520875,13.8369375 8.7159375,13.8369375 C7.909875,13.8369375 7.1415,13.491 6.607125,12.8885625 C6.3523125,12.6 6.0001875,12.441375 5.617125,12.441375 C5.2351875,12.441375 4.8825,12.6 4.626,12.888 C4.09275,13.4915625 3.3238125,13.836375 2.5183125,13.836375 C1.71225,13.836375 0.9444375,13.491 0.4095,12.889125 C0.2919375,12.7558125 0.151875,12.654 -1.45661261e-13,12.578625 L-1.45661261e-13,10.65825 C0.7081875,10.789875 1.3325625,11.1465 1.791,11.664 C1.9749375,11.8715625 2.241,11.9896875 2.51775,11.9896875 C2.79675,11.9896875 3.0605625,11.8715625 3.2461875,11.6634375 C3.826125,11.008125 4.66875,10.5958125 5.6165625,10.5958125 C6.5655,10.5958125 7.405875,11.0086875 7.9875,11.6634375 C8.1725625,11.8715625 8.4375,11.9896875 8.715375,11.9896875 C8.9938125,11.9896875 9.257625,11.871 9.442125,11.662875 C10.022625,11.008125 10.86525,10.5958125 11.813625,10.5958125 C12.7704375,10.5958125 13.6198125,11.017125 14.200875,11.683125 C14.38425,11.894625 14.6525625,12.0155625 14.9326875,12.0155625 C15.2145,12.0155625 15.48225,11.8940625 15.6661875,11.683125 Z M13.710375,9.8803125 C12.4531333,9.8803125 11.4339375,8.86111672 11.4339375,7.603875 C11.4339375,6.34663328 12.4531333,5.3274375 13.710375,5.3274375 C14.9676167,5.3274375 15.9868125,6.34663328 15.9868125,7.603875 C15.9868125,8.86111672 14.9676167,9.8803125 13.710375,9.8803125 Z M8.447625,11.255625 C7.7293125,10.4450625 6.6976875,9.9793125 5.61825,9.9804375 C4.73625,9.9804375 3.8896875,10.294875 3.2175,10.848375 C3.2765625,10.0198125 3.8131875,9.2638125 4.6479375,8.9690625 L8.3716875,7.6545 C8.4886875,7.612875 8.6090625,7.5886875 8.7283125,7.567875 L8.5325625,6.77475 C8.49825,6.6279375 8.26425,5.4613125 9.02475,4.350375 C9.635625,3.4576875 10.6779375,2.89575 12.1190625,2.680875 C12.62925,2.6055 13.095,2.9536875 13.1686875,3.4576875 C13.2435,3.9616875 12.895875,4.4308125 12.391875,4.5061875 C11.491875,4.6411875 10.8534375,4.9471875 10.5485625,5.39325 C10.240875,5.8438125 10.3275,6.345 10.328625,6.3500625 C10.328625,6.3500625 11.0525625,8.78175 11.118375,8.9679375 C11.24325,9.322875 11.26125,9.6885 11.20275,10.0355625 C10.3516875,10.175625 9.563625,10.59975 8.9814375,11.2550625 C8.845875,11.4075 8.582625,11.406375 8.447625,11.255625 Z"></path>
                    </g>
                </g>
            </g>
        </g>
    </symbol>

    <symbol id="has_fitness" width="18px" height="18px" viewBox="0 0 18 18" version="1.1">
        <g stroke="none" stroke-width="1" fill="none" fill-rule="evenodd">
            <g transform="translate(-4.000000, -4.000000)" fill="currentColor">
                <g>
                    <g transform="translate(4.000000, 4.000000)">
                        <path d="M17.3784211,8.32917544 L17.046386,8.32917544 L17.046386,6.90394737 C17.046386,6.58005263 16.7837895,6.31745614 16.4598947,6.31745614 L15.5021053,6.31745614 L15.5021053,6.2352807 C15.5021053,5.91138596 15.2395088,5.64878947 14.915614,5.64878947 L13.2149123,5.64878947 C12.8910175,5.64878947 12.6284211,5.91138596 12.6284211,6.2352807 L12.6284211,8.32910526 L5.33649123,8.32910526 L5.33649123,6.25047368 C5.33649123,5.92657895 5.07389474,5.66398246 4.75,5.66398246 L3.04929825,5.66398246 C2.72540351,5.66398246 2.46280702,5.92657895 2.46280702,6.25047368 L2.46280702,6.31742105 L1.50501754,6.31742105 C1.18112281,6.31742105 0.918526316,6.58001754 0.918526316,6.90391228 L0.918526316,8.32914035 L0.58645614,8.32914035 C0.262596491,8.32914035 0,8.59173684 0,8.91563158 C0,9.23952632 0.262596491,9.50212281 0.586491228,9.50212281 L0.918561404,9.50212281 L0.918561404,10.9273509 C0.918561404,11.2512456 1.18115789,11.5138421 1.50505263,11.5138421 L2.46287719,11.5138421 L2.46287719,11.6112456 C2.46287719,11.9351404 2.72547368,12.1977368 3.04936842,12.1977368 L4.75007018,12.1977368 C5.07396491,12.1977368 5.3365614,11.9351404 5.3365614,11.6112456 L5.3365614,9.50215789 L12.6284912,9.50215789 L12.6284912,11.5959825 C12.6284912,11.9198772 12.8910877,12.1824737 13.2149825,12.1824737 L14.9156842,12.1824737 C15.2395789,12.1824737 15.5021754,11.9198772 15.5021754,11.5959825 L15.5021754,11.5138421 L16.46,11.5138421 C16.7838947,11.5138421 17.0464912,11.2512456 17.0464912,10.9273509 L17.0464912,9.50212281 L17.3785263,9.50212281 C17.7024211,9.50212281 17.9650175,9.23952632 17.9650175,8.91563158 C17.9650175,8.59173684 17.7023509,8.32917544 17.3784211,8.32917544 Z"></path>
                    </g>
                </g>
            </g>
        </g>
    </symbol>

    <symbol id="has_meal" width="18px" height="18px" viewBox="0 0 18 18" version="1.1">
        <g stroke="none" stroke-width="1" fill="none" fill-rule="evenodd">
            <g transform="translate(-4.000000, -4.000000)" fill="currentColor">
                <g>
                    <g transform="translate(4.000000, 4.000000)">
                        <path d="M16.3538789,2.14941797 C16.3413633,2.09787891 16.3088789,2.05340625 16.2635977,2.02584375 L13.0777734,0.084796875 C12.9207305,-0.0108632812 12.7277227,-0.0265078125 12.5573203,0.04246875 C12.3869531,0.111550781 12.2593008,0.257203125 12.2131406,0.435164063 L11.1324375,4.60511719 L9.22858594,4.60511719 C8.95102734,2.94971484 7.50821484,1.68419531 5.7751875,1.68419531 C3.84423047,1.68419531 2.27330859,3.25511719 2.27330859,5.18607422 C2.27330859,6.91917187 3.53886328,8.36194922 5.19426563,8.63954297 L5.19426563,14.5216406 C5.19426563,15.5138555 5.70469922,16.3886836 6.47637891,16.898625 C6.28460156,16.9935469 6.15241406,17.1905977 6.15241406,17.419043 C6.15241406,17.7398789 6.41253516,18 6.73337109,18 L12.7755352,18 C13.0963711,18 13.3564922,17.7398789 13.3564922,17.419043 C13.3564922,17.1905977 13.2243047,16.9935117 13.0325625,16.898625 C13.8042773,16.3886484 14.3146758,15.5137852 14.3146758,14.5216406 L14.3146758,5.18610938 C14.3146758,4.86527344 14.0545547,4.60515234 13.7337188,4.60515234 L12.3327773,4.60515234 L13.141582,1.48419141 L15.6590859,3.01795313 C15.7534102,3.07543359 15.876457,3.04555078 15.9339375,2.95119141 L16.3303594,2.30058984 C16.3579219,2.25534375 16.3663945,2.20095703 16.3538789,2.14941797 Z M5.7751875,4.60515234 C5.45435156,4.60515234 5.19423047,4.86527344 5.19423047,5.18610938 L5.19423047,7.45308984 C4.18408594,7.19405859 3.4351875,6.27591797 3.4351875,5.18610938 C3.4351875,3.89583984 4.48491797,2.84610938 5.7751875,2.84610938 C6.86499609,2.84610938 7.78310156,3.59500781 8.04213281,4.60515234 L5.7751875,4.60515234 Z M8.04209766,5.76703125 C7.83073828,6.59141016 7.18045313,7.24169531 6.35614453,7.45305469 L6.35614453,5.76703125 L8.04209766,5.76703125 Z M9.70639453,10.1078789 L6.35614453,10.1078789 L6.35614453,8.63957812 C7.82251172,8.39369531 8.98273828,7.23343359 9.22858594,5.76703125 L10.8313242,5.76703125 L9.70639453,10.1078789 Z M13.1527266,5.76703125 L13.1527266,10.1078789 L10.9066992,10.1078789 L12.0316641,5.76703125 L13.1527266,5.76703125 L13.1527266,5.76703125 Z"></path>
                    </g>
                </g>
            </g>
        </g>
    </symbol>

    <symbol id="has_breakfast" width="14px" height="14px" viewBox="0 0 14 14">
        <defs></defs>
        <g stroke="none" stroke-width="1" fill="none" fill-rule="evenodd">
            <g fill="currentColor" fill-rule="nonzero">
                <g>
                    <path d="M13.6358359,11.9034453 L8.14616797,6.41375 L1.73241797,0 L1.23117969,0 L1.12883203,0.260066406 C0.858703125,0.946503906 0.743285156,1.64858203 0.795101562,2.2903125 C0.854164062,3.0218125 1.13205859,3.65512109 1.59878906,4.12185156 L6.60570313,9.12876562 L7.26610938,8.46835937 L11.8949961,13.6443398 C12.3554648,14.1048086 13.1480234,14.1321523 13.6358359,13.6443398 C14.1158281,13.1643477 14.1158281,12.3834102 13.6358359,11.9034453 Z"></path>
                    <path d="M4.28553125,7.96911719 L0.364136719,11.8905117 C-0.115800781,12.3704492 -0.115800781,13.1514141 0.364136719,13.6313516 C0.820066406,14.0872813 1.60879687,14.1275313 2.10497656,13.6313516 L6.02639844,9.70992969 L4.28553125,7.96911719 Z"></path>
                    <path d="M13.4053555,2.33102734 L11.1809141,4.55544141 L10.6005977,3.97515234 L12.8250391,1.75071094 L12.24475,1.17042187 L10.0203359,3.39483594 L9.44004687,2.81454687 L11.6644883,0.590132812 L11.0842266,0.00987109375 L8.18278125,2.91131641 C7.82783203,3.26626562 7.61589062,3.7375625 7.58592187,4.23844531 C7.57834766,4.36534766 7.54958203,4.49017187 7.50186719,4.60889844 L9.38664453,6.49367578 C9.50537109,6.44590625 9.63022266,6.41716797 9.75709766,6.40959375 C10.2579805,6.37970703 10.7292773,6.16771094 11.0842266,5.81276172 L13.9856719,2.91134375 L13.4053555,2.33102734 Z"></path>
                </g>
            </g>
        </g>
    </symbol>

    <symbol id="has_bathroom" width="16px" height="16px" viewBox="0 0 16 16">
        <defs></defs>
        <g stroke="none" stroke-width="1" fill="none" fill-rule="evenodd">
            <g fill="currentColor">
                <g>
                    <path d="M15.2,8.00209375 L14.9333437,8.00209375 L14.9333437,2.40209375 C14.9333437,1.078625 13.8565312,0.00209375 12.5333437,0.00209375 C11.349875,0.00209375 10.5034687,0.878375 10.4093437,2.1615625 C9.7970625,2.28184375 9.33334375,2.8215625 9.33334375,3.46875 C9.33334375,3.61621875 9.4528125,3.73540625 9.6,3.73540625 L11.7333437,3.73540625 C11.8805312,3.73540625 12,3.61621875 12,3.46875 C12,2.82928125 11.5471875,2.294625 10.9455937,2.1658125 C11.0231875,1.32046875 11.522125,0.53540625 12.5333125,0.53540625 C13.5626562,0.53540625 14.3999687,1.373 14.3999687,2.4020625 L14.3999687,8.0020625 L6.3730625,8.0020625 C6.2490625,7.39434375 5.71040625,6.93540625 5.06665625,6.93540625 L5.0610625,6.93540625 C4.81065625,6.60259375 4.41840625,6.4020625 4,6.4020625 C3.4930625,6.4020625 3.0410625,6.694875 2.818125,7.12846875 C2.6130625,7.00340625 2.3770625,6.93540625 2.1333125,6.93540625 C1.48959375,6.93540625 0.95090625,7.39434375 0.82690625,8.0020625 L0.8,8.0020625 C0.3589375,8.0020625 0,8.361 0,8.8020625 C0,9.243125 0.3589375,9.6020625 0.8,9.6020625 L1.1250625,9.6020625 L1.83840625,12.4545937 C2.04640625,13.287125 2.79121875,13.8687187 3.64934375,13.8687187 L3.83521875,13.8687187 L3.4946875,14.5495312 C3.4288125,14.68125 3.48240625,14.84125 3.61415625,14.9074062 C3.65228125,14.9263437 3.69309375,14.9354062 3.73309375,14.9354062 C3.83096875,14.9354062 3.92509375,14.8815313 3.97203125,14.7879375 L4.4315,13.86875 L11.8352187,13.86875 L12.2946875,14.7879375 C12.341625,14.8815313 12.43575,14.9354062 12.533625,14.9354062 C12.573625,14.9354062 12.6144375,14.9263437 12.6525625,14.9074062 C12.7842812,14.8412812 12.8379062,14.6812812 12.7720312,14.5495312 L12.4283125,13.8623437 C13.2528437,13.8279375 13.9600312,13.2618125 14.1616562,12.454625 L14.875,9.60209375 L15.2,9.60209375 C15.6410625,9.60209375 16,9.24315625 16,8.80209375 C16,8.36103125 15.6410625,8.00209375 15.2,8.00209375 Z M15.2,9.06875 L14.6666562,9.06875 L1.33334375,9.06875 L0.8,9.06875 C0.6530625,9.06875 0.53334375,8.94928125 0.53334375,8.80209375 C0.53334375,8.65490625 0.6530625,8.5354375 0.8,8.5354375 L1.06665625,8.5354375 L6.1333125,8.5354375 L15.2,8.5354375 C15.3469375,8.5354375 15.4666562,8.65490625 15.4666562,8.80209375 C15.4666562,8.94928125 15.3469375,9.06875 15.2,9.06875 Z"></path>
                    <path d="M9.6,4.93540625 C9.7471875,4.93540625 9.86665625,4.81621875 9.86665625,4.66875 L9.86665625,4.53540625 C9.86665625,4.3879375 9.7471875,4.26875 9.6,4.26875 C9.4528125,4.26875 9.33334375,4.3879375 9.33334375,4.53540625 L9.33334375,4.66875 C9.33334375,4.81621875 9.4528125,4.93540625 9.6,4.93540625 Z"></path>
                    <path d="M9.6,6.1544375 C9.7471875,6.1544375 9.86665625,6.03525 9.86665625,5.88778125 L9.86665625,5.58296875 C9.86665625,5.43578125 9.7471875,5.3163125 9.6,5.3163125 C9.4528125,5.3163125 9.33334375,5.43578125 9.33334375,5.58296875 L9.33334375,5.88778125 C9.33334375,6.03521875 9.4528125,6.1544375 9.6,6.1544375 Z"></path>
                    <path d="M9.6,7.20209375 C9.7471875,7.20209375 9.86665625,7.08290625 9.86665625,6.9354375 L9.86665625,6.80209375 C9.86665625,6.654625 9.7471875,6.5354375 9.6,6.5354375 C9.4528125,6.5354375 9.33334375,6.654625 9.33334375,6.80209375 L9.33334375,6.9354375 C9.33334375,7.082875 9.4528125,7.20209375 9.6,7.20209375 Z"></path>
                    <path d="M10.6666562,4.93540625 C10.8138437,4.93540625 10.9333125,4.81621875 10.9333125,4.66875 L10.9333125,4.53540625 C10.9333125,4.3879375 10.8138437,4.26875 10.6666562,4.26875 C10.5194687,4.26875 10.4,4.3879375 10.4,4.53540625 L10.4,4.66875 C10.4,4.81621875 10.5194687,4.93540625 10.6666562,4.93540625 Z"></path>
                    <path d="M10.4,5.88775 C10.4,6.03521875 10.5194687,6.15440625 10.6666562,6.15440625 C10.8138437,6.15440625 10.9333125,6.03521875 10.9333125,5.88775 L10.9333125,5.5829375 C10.9333125,5.43575 10.8138437,5.31628125 10.6666562,5.31628125 C10.5194687,5.31628125 10.4,5.43575 10.4,5.5829375 L10.4,5.88775 Z"></path>
                    <path d="M10.4,6.93540625 C10.4,7.082875 10.5194687,7.2020625 10.6666562,7.2020625 C10.8138437,7.2020625 10.9333125,7.082875 10.9333125,6.93540625 L10.9333125,6.8020625 C10.9333125,6.65459375 10.8138437,6.53540625 10.6666562,6.53540625 C10.5194687,6.53540625 10.4,6.65459375 10.4,6.8020625 L10.4,6.93540625 Z"></path>
                    <path d="M11.7333437,4.93540625 C11.8805312,4.93540625 12,4.81621875 12,4.66875 L12,4.53540625 C12,4.3879375 11.8805312,4.26875 11.7333437,4.26875 C11.5861562,4.26875 11.4666875,4.3879375 11.4666875,4.53540625 L11.4666875,4.66875 C11.4666562,4.81621875 11.586125,4.93540625 11.7333437,4.93540625 Z"></path>
                    <path d="M11.4666563,5.88775 C11.4666563,6.03521875 11.586125,6.15440625 11.7333125,6.15440625 C11.8805,6.15440625 11.9999688,6.03521875 11.9999688,5.88775 L11.9999688,5.5829375 C11.9999688,5.43575 11.8805,5.31628125 11.7333125,5.31628125 C11.586125,5.31628125 11.4666563,5.43575 11.4666563,5.5829375 L11.4666563,5.88775 Z"></path>
                    <path d="M11.4666563,6.93540625 C11.4666563,7.082875 11.586125,7.2020625 11.7333125,7.2020625 C11.8805,7.2020625 11.9999688,7.082875 11.9999688,6.93540625 L11.9999688,6.8020625 C11.9999688,6.65459375 11.8805,6.53540625 11.7333125,6.53540625 C11.586125,6.53540625 11.4666563,6.65459375 11.4666563,6.8020625 L11.4666563,6.93540625 Z"></path>
                </g>
            </g>
        </g>
    </symbol>

    <symbol id="has_parking" width="16px" height="16px" viewBox="0 0 16 16">
        <defs></defs>
        <g stroke="none" stroke-width="1" fill="none" fill-rule="evenodd">
            <g fill="currentColor">
                <g>
                    <path d="M0,1.99290534 C0,0.892254113 0.894513756,0 1.99406028,0 L14.0059397,0 C15.1072288,0 16,0.896968746 16,1.99290534 L16,14.2598379 C16,15.3604891 15.1054862,16.2527432 14.0059397,16.2527432 L1.99406028,16.2527432 C0.892771196,16.2527432 0,15.3557744 0,14.2598379 L0,1.99290534 Z M14.4616471,12.9926341 C14.4616471,14.148491 13.5322353,15.0954523 12.3929412,15.0954523 L3.24188235,15.0954523 C2.10305882,15.0954523 1.16658824,14.148491 1.16658824,12.9926341 L1.16658824,3.33802664 C1.16658824,2.18121374 2.10305882,1.25241727 3.24188235,1.25241727 L12.3929412,1.25241727 C13.5322353,1.25241727 14.4616471,2.18121374 14.4616471,3.33802664 L14.4616471,12.9926341 L14.4616471,12.9926341 Z" ></path>
                    <path d="M12.568,2.16611765 L3.41647059,2.16611765 C2.80047059,2.16611765 2.30776471,2.67105882 2.30776471,3.28658824 L2.30776471,12.7905882 C2.30776471,13.4065882 2.80094118,13.8945882 3.41647059,13.8945882 L12.5675294,13.8945882 C13.1830588,13.8945882 13.6701176,13.4056471 13.6701176,12.7905882 L13.6701176,3.28611765 C13.6701176,2.67058824 13.1830588,2.16611765 12.568,2.16611765 Z M10.2418824,8.18541176 C9.64894118,8.74258824 8.76470588,8.99247059 7.74023529,8.99247059 C7.51294118,8.99247059 7.30588235,8.98117647 7.13976471,8.95858824 L7.13976471,11.6955294 L5.44,11.6955294 L5.44,4.13882353 C5.97364706,4.048 6.72470588,3.97976471 7.784,3.97976471 C8.85458824,3.97976471 9.61647059,4.18447059 10.1284706,4.59341176 C10.6188235,4.97976471 10.9482353,5.61647059 10.9482353,6.36752941 C10.9487059,7.11764706 10.6969412,7.75341176 10.2418824,8.18541176 Z"></path>
                    <path d="M7.86494118,5.28658824 C7.51247059,5.28658824 7.27247059,5.32094118 7.13929412,5.35482353 L7.13929412,7.61741176 C7.30588235,7.65129412 7.47764706,7.66258824 7.72847059,7.66258824 C8.65129412,7.66258824 9.22023529,7.19623529 9.22023529,6.41223529 C9.22070588,5.70729412 8.72988235,5.28658824 7.86494118,5.28658824 Z"></path>
                </g>
            </g>
        </g>
    </symbol>

    <symbol id="has_airport_transfer" width="16px" height="16px" viewBox="0 0 16 16">
        <defs></defs>
        <g stroke="none" stroke-width="1" fill="none" fill-rule="evenodd">
            <g fill="currentColor">
                <g>
                    <g transform="translate(0.000000, 4.000000)">
                        <g>
                            <path d="M15.6346928,6.39443137 L15.628549,6.39443137 L15.628549,1.52481046 C15.628549,0.696183007 14.9544314,0.0221176471 14.1258562,0.0221176471 L1.43576471,0.0221176471 C0.889202614,0.0221176471 0.444496732,0.466823529 0.444496732,1.01338562 L0.444496732,1.18755556 C0.444496732,1.38933333 0.608,1.55286275 0.809803922,1.55286275 L0.910039216,1.55286275 L0.452026144,3.88366013 C0.451947712,3.88402614 0.451869281,3.88439216 0.451816993,3.8848366 L0.451294118,3.88739869 C0.44896732,3.89924183 0.449176471,3.91084967 0.448,3.92261438 C0.446823529,3.93437908 0.444418301,3.94577778 0.444418301,3.95783007 L0.444418301,3.96047059 L0.444418301,3.96164706 L0.444418301,6.39445752 L0.36530719,6.39445752 C0.163503268,6.39443137 0,6.55793464 0,6.75971242 L0,7.51871895 C0,7.72049673 0.163503268,7.88402614 0.36530719,7.88402614 L0.809803922,7.88402614 L1.26028758,7.88402614 L1.63294118,7.88402614 C1.79419608,8.47924183 2.33759477,8.91905882 2.98321569,8.91905882 C3.6288366,8.91905882 4.17226144,8.47924183 4.3334902,7.88402614 L11.0332026,7.88402614 C11.1945098,8.47924183 11.7379346,8.91905882 12.3834771,8.91905882 C13.0290196,8.91905882 13.5725229,8.47924183 13.7337516,7.88402614 L14.739634,7.88402614 L15.2631895,7.88402614 L15.6346928,7.88402614 C15.8364706,7.88402614 16,7.72052288 16,7.51871895 L16,6.75971242 C16,6.55793464 15.8364967,6.39443137 15.6346928,6.39443137 Z M2.63014379,3.59252288 L2.63014379,1.55286275 L4.35924183,1.55286275 L4.35924183,3.59252288 L2.63014379,3.59252288 Z M5.08983007,1.55286275 L7.67124183,1.55286275 L7.67124183,3.59252288 L5.08983007,3.59252288 L5.08983007,1.55286275 Z M8.40183007,1.55286275 L10.9832418,1.55286275 L10.9832418,3.59252288 L8.40183007,3.59252288 L8.40183007,1.55286275 Z M1.25385621,3.59252288 L1.65466667,1.55286275 L1.89955556,1.55286275 L1.89955556,3.59252288 L1.25385621,3.59252288 Z M2.98324183,8.18839216 C2.61398693,8.18839216 2.31356863,7.88797386 2.31356863,7.51866667 C2.31356863,7.14941176 2.61398693,6.84899346 2.98324183,6.84899346 C3.35254902,6.84899346 3.65296732,7.14941176 3.65296732,7.51866667 C3.65296732,7.88797386 3.35254902,8.18839216 2.98324183,8.18839216 Z M12.3835556,8.18839216 C12.0142484,8.18839216 11.7138301,7.88797386 11.7138301,7.51866667 C11.7138301,7.14941176 12.0142484,6.84899346 12.3835556,6.84899346 C12.7528627,6.84899346 13.053281,7.14941176 13.053281,7.51866667 C13.0533072,7.88797386 12.7528889,8.18839216 12.3835556,8.18839216 Z M11.7138301,3.59252288 L11.7138301,1.55286275 L12.6355556,1.55286275 C13.1703529,1.55286275 13.6301176,1.91626144 13.7535948,2.43660131 L14.028,3.59254902 L11.7138301,3.59254902 L11.7138301,3.59252288 Z"></path>
                        </g>
                    </g>
                </g>
            </g>
        </g>
    </symbol>
</svg>